<svg width="86" height="86" viewBox="0 0 86 86" fill="none" xmlns="http://www.w3.org/2000/svg">
<path d="M43 78.5301C52.52 78.5301 61.445 74.8751 68.16 68.1601C74.875 61.4451 78.53 52.5201 78.53 43.0001C78.53 33.4801 74.875 24.5551 68.16 17.8401C61.445 11.1251 52.52 7.47006 43 7.47006C33.48 7.47006 24.555 11.1251 17.84 17.8401C11.125 24.5551 7.47 33.4801 7.47 43.0001C7.47 52.5201 11.125 61.4451 17.84 68.1601C24.555 74.8751 33.48 78.5301 43 78.5301ZM45.04 72.4951C44.36 72.5801 43.68 72.5801 43 72.5801C42.065 72.5801 41.13 72.4951 40.195 72.4101C37.135 67.6501 34.84 62.5501 33.48 57.1951H48.525C49.035 58.4701 49.97 59.6601 51.075 60.4251C49.63 64.6751 47.59 68.6701 45.04 72.4951ZM53.115 70.7951C54.73 67.8201 56.005 64.8451 57.025 61.7001C59.49 61.1901 61.445 59.4901 62.38 57.1951H68.925C65.525 63.4001 59.83 68.2451 53.115 70.7951ZM72.495 43.0001C72.495 45.8051 72.07 48.5251 71.39 51.1601H62.21C61.7 50.0551 60.85 49.0351 59.83 48.2701C60 46.4001 60.085 44.5301 60.085 42.6601C60.085 40.0251 59.915 37.3901 59.575 34.8401H71.305C72.155 37.3901 72.495 40.1951 72.495 43.0001ZM68.925 28.8051H58.555C57.45 24.1301 55.835 19.7101 53.625 15.4601C60.085 17.9251 65.525 22.7701 68.925 28.8051ZM54.135 42.6601C54.135 44.1051 54.05 45.5501 53.965 46.9951C51.585 47.5051 49.63 49.0351 48.695 51.1601H32.29C31.95 48.6101 31.695 45.9751 31.695 43.4251C31.695 41.8101 31.78 40.1951 31.95 38.5801C34.16 38.1551 35.945 36.7101 37.05 34.8401H53.625C53.965 37.3901 54.135 40.0251 54.135 42.6601ZM40.79 13.5901C41.555 13.5051 42.32 13.5051 43 13.5051C43.85 13.5051 44.7 13.5051 45.55 13.5901C48.61 18.3501 50.905 23.4501 52.265 28.8051H37.475C36.965 27.3601 36.03 26.0851 34.84 25.1501C36.37 21.0701 38.325 17.2451 40.79 13.5901ZM32.715 15.2901C31.27 18.0101 29.995 20.9001 28.975 23.7901C26.34 24.3001 24.215 26.2551 23.365 28.7201H17.16C20.475 22.6851 26 17.8401 32.715 15.2901ZM13.505 43.0001C13.505 40.1951 13.93 37.3901 14.695 34.8401H23.96C24.47 35.7751 25.235 36.6251 26.085 37.3051C25.915 39.3451 25.745 41.3851 25.745 43.4251C25.745 46.0601 25.915 48.6101 26.255 51.1601H14.695C13.845 48.5251 13.505 45.8051 13.505 43.0001ZM27.275 57.1101C28.38 61.7001 29.995 66.2051 32.205 70.4551C25.745 67.9051 20.39 63.1451 17.075 57.1101H27.275Z" fill="url(#paint0_linear_3_26)"/>
<defs>
<linearGradient id="paint0_linear_3_26" x1="43" y1="7.47006" x2="7" y2="57.5" gradientUnits="userSpaceOnUse">
<stop offset="0.365937" stop-color="#D2042D"/>
<stop offset="0.970832" stop-color="#CED4DB"/>
</linearGradient>
</defs>
</svg>
